<svg
   xmlns="http://www.w3.org/2000/svg"
   xmlns:xlink="http://www.w3.org/1999/xlink"
   version="1.1"
   xml:space="preserve"
   x="0px" 
   y="0px" 
   width="348.95129pt"
   height="198.375pt"
   viewBox="0 0 348.95129 198.375"
>
  <defs>
    <linearGradient id="MyGradient" x1="0" y1="0" x2="100%" y2="100%">
      <stop offset="0%" stop-color="rgb(204,63,223)" />
      <stop offset="100%" stop-color="rgb(255,127,135)" />
    </linearGradient>
  </defs>
  <g
     transform="matrix(0.1,0,0,-0.1,-81.048697,351.875)"
     id="g4140"
     style="fill:url(#MyGradient);stroke:none">
    <path
       d="m 2150,3509 c -30,-5 -74,-19 -97,-30 -69,-33 -109,-99 -61,-99 35,0 107,-40 133,-74 46,-61 57,-146 52,-401 -4,-239 -13,-291 -54,-337 -23,-25 -72,-22 -114,7 -84,56 -254,317 -380,583 -44,92 -88,183 -97,202 -11,23 -32,43 -62,58 -44,23 -50,23 -325,20 -249,-3 -284,-5 -308,-21 -43,-28 -36,-68 38,-230 227,-490 532,-977 764,-1220 195,-203 397,-318 654,-373 48,-10 135,-14 288,-14 277,0 256,-13 278,180 19,170 83,254 176,229 30,-9 62,-36 144,-122 217,-228 256,-263 327,-298 l 69,-34 295,1 c 179,1 311,6 335,13 61,16 95,53 95,102 0,90 -95,217 -360,480 -197,195 -218,226 -206,293 7,37 81,148 206,311 162,210 262,359 325,485 21,40 28,71 29,114 1,51 -2,61 -24,77 -31,22 -55,23 -432,21 l -298,-2 -29,-27 c -19,-17 -46,-67 -71,-128 -97,-236 -272,-527 -388,-645 -82,-84 -111,-94 -153,-54 -47,45 -52,82 -48,379 4,353 2,412 -17,463 -18,49 -55,72 -142,91 -63,13 -461,13 -542,0 z"
     />
  </g>
</svg>
